<svg xmlns="http://www.w3.org/2000/svg" xmlns:xlink="http://www.w3.org/1999/xlink" width="500" zoomAndPan="magnify" viewBox="0 0 375 60" height="80" preserveAspectRatio="xMidYMid meet" version="1.0"><path fill="#b3866a" d="M 13.324219 27.660156 C 16.085938 27.660156 18.691406 28.851562 20.664062 30.839844 C 22.558594 32.746094 24.292969 34.8125 26.1875 36.800781 C 27.054688 37.832031 28 38.789062 28.949219 39.660156 C 29.972656 40.773438 31.632812 41.011719 32.894531 40.296875 C 33.917969 39.742188 34.707031 38.789062 35.183594 37.675781 C 35.890625 35.765625 36.761719 33.9375 37.785156 32.109375 C 39.128906 29.804688 41.257812 28.691406 43.78125 28.136719 C 45.835938 27.660156 47.886719 27.582031 50.015625 27.820312 C 53.644531 28.214844 56.800781 30.28125 58.695312 33.382812 C 59.640625 35.132812 60.90625 36.722656 62.402344 37.992188 C 65.480469 40.695312 69.742188 41.332031 73.449219 39.820312 C 74.160156 39.503906 74.792969 39.105469 75.34375 38.546875 C 78.105469 36.003906 80.550781 33.144531 82.445312 29.964844 C 83.472656 28.214844 84.8125 26.625 86.234375 25.195312 C 88.679688 22.890625 91.914062 21.539062 95.226562 21.617188 C 97.4375 21.617188 99.726562 21.300781 101.933594 21.378906 C 104.378906 21.460938 106.828125 22.015625 109.035156 23.050781 C 111.71875 24.164062 113.691406 26.148438 115.742188 28.136719 C 117.558594 29.804688 119.6875 31.15625 121.976562 32.03125 C 124.34375 33.066406 127.027344 33.304688 129.550781 32.667969 C 131.445312 32.109375 133.257812 31.078125 134.679688 29.726562 C 135.941406 28.691406 137.285156 27.738281 138.546875 26.707031 C 139.964844 25.59375 141.386719 24.402344 142.726562 23.207031 C 145.570312 20.425781 148.566406 17.722656 152.195312 15.894531 C 154.5625 14.703125 156.851562 13.351562 159.140625 12.160156 C 162.375 10.332031 166.164062 9.777344 169.792969 10.570312 C 171.449219 10.96875 173.183594 11.207031 174.839844 11.605469 C 177.683594 12.320312 180.285156 13.671875 182.496094 15.578125 C 184.785156 17.40625 186.441406 19.792969 188.414062 21.859375 C 189.914062 23.605469 191.804688 25.035156 193.9375 26.070312 C 195.199219 26.546875 196.539062 26.707031 197.800781 26.625 C 200.089844 26.546875 202.378906 26.308594 204.667969 26.070312 C 206.324219 25.910156 207.824219 25.195312 209.007812 24.082031 C 210.902344 22.253906 212.714844 20.269531 214.609375 18.519531 C 217.054688 16.054688 219.976562 14.066406 223.210938 12.636719 C 225.023438 11.84375 226.917969 11.285156 228.890625 10.890625 C 231.335938 10.492188 233.46875 11.523438 235.675781 12.320312 C 238.515625 13.351562 240.015625 15.738281 241.832031 17.964844 C 243.015625 19.394531 244.277344 20.746094 245.617188 22.015625 C 247.195312 23.289062 249.246094 23.6875 251.140625 23.207031 C 252.957031 22.890625 254.613281 22.253906 256.191406 21.300781 C 257.925781 20.1875 259.503906 18.757812 260.847656 17.167969 C 262.03125 15.578125 263.371094 13.988281 264.792969 12.558594 C 265.816406 11.683594 267 10.96875 268.34375 10.492188 C 269.921875 9.933594 271.578125 9.539062 273.15625 9.21875 C 275.128906 8.824219 277.101562 8.980469 278.996094 9.457031 C 280.492188 9.855469 281.992188 10.414062 283.492188 10.96875 C 284.125 11.285156 284.675781 11.605469 285.148438 12.082031 C 286.175781 12.875 287.121094 13.75 288.226562 14.546875 C 289.09375 15.179688 290.121094 15.816406 290.988281 16.453125 C 292.171875 17.246094 293.671875 17.566406 295.089844 17.246094 C 296.984375 16.929688 298.878906 16.453125 300.691406 15.816406 C 302.585938 15.023438 304.242188 13.671875 305.585938 12.082031 C 307.398438 10.09375 309.136719 7.949219 310.949219 5.960938 C 312.132812 4.609375 313.632812 3.578125 315.371094 2.941406 C 317.261719 2.226562 319.234375 1.589844 321.207031 1.113281 C 323.652344 0.714844 326.101562 0.476562 328.625 0.398438 C 329.652344 0.316406 330.753906 0.316406 331.78125 0.476562 C 333.203125 0.792969 334.621094 1.191406 335.964844 1.75 C 338.804688 2.703125 340.460938 4.847656 341.960938 7.234375 C 343.144531 9.140625 344.167969 11.285156 346.21875 12.480469 C 347.71875 13.351562 349.457031 13.988281 351.113281 13.671875 C 352.613281 13.273438 354.109375 12.636719 355.375 11.683594 C 356.953125 10.570312 358.214844 9.0625 359.714844 7.867188 C 361.921875 6.121094 363.816406 3.894531 366.339844 2.542969 C 367.917969 1.667969 369.496094 0.714844 371.390625 0.714844 C 371.628906 0.714844 371.863281 0.554688 372.101562 0.398438 C 372.652344 0 373.285156 0.238281 373.207031 0.792969 C 372.96875 2.382812 372.652344 3.894531 372.179688 5.40625 C 372.023438 5.960938 371.152344 6.4375 370.601562 6.675781 C 368.550781 7.628906 366.339844 8.425781 364.605469 9.777344 C 363.972656 10.253906 363.5 10.890625 362.949219 11.367188 C 361.449219 12.71875 359.949219 14.066406 358.449219 15.417969 C 357.1875 16.613281 355.847656 17.722656 354.425781 18.757812 C 351.191406 20.824219 347.796875 21.0625 344.328125 18.996094 C 342.511719 17.804688 341.171875 16.214844 340.304688 14.226562 C 339.121094 11.921875 337.699219 9.617188 335.332031 8.425781 C 333.359375 7.390625 331.230469 6.515625 328.941406 6.757812 C 326.496094 6.996094 323.96875 7.152344 321.523438 7.550781 C 319.945312 7.789062 318.445312 8.503906 316.867188 8.902344 C 315.210938 9.300781 313.632812 10.09375 312.292969 11.207031 C 311.34375 12.160156 310.398438 13.113281 309.609375 14.148438 C 307.953125 16.054688 306.375 18.121094 304.558594 19.949219 C 302.113281 22.335938 298.957031 23.84375 295.5625 24.082031 C 295.011719 24.164062 294.539062 24.242188 293.984375 24.320312 C 291.460938 24.640625 289.332031 23.605469 287.515625 21.9375 C 287.199219 21.699219 286.726562 21.539062 286.410156 21.222656 C 285.386719 20.347656 284.359375 19.472656 283.335938 18.519531 C 282.152344 17.328125 280.574219 16.851562 279.074219 16.292969 C 278.363281 16.136719 277.652344 15.976562 276.941406 15.894531 C 275.363281 15.5 273.707031 15.5 272.128906 15.894531 C 270.316406 16.214844 268.5 16.769531 266.765625 17.40625 C 265.738281 17.882812 264.871094 18.679688 264.082031 19.550781 C 262.503906 21.300781 261.164062 23.207031 259.585938 24.878906 C 257.847656 26.785156 255.71875 28.214844 253.273438 29.011719 C 251.773438 29.566406 250.117188 29.964844 248.457031 29.964844 C 246.644531 29.964844 244.828125 29.328125 243.410156 28.136719 C 242.382812 27.183594 241.359375 26.230469 240.488281 25.117188 C 239.542969 24.003906 238.597656 22.8125 237.726562 21.621094 C 236.703125 20.347656 235.359375 19.3125 233.78125 18.757812 C 231.808594 17.964844 229.917969 17.328125 227.785156 17.644531 C 227.3125 17.722656 226.839844 17.804688 226.285156 17.964844 C 223.761719 18.519531 221.394531 19.632812 219.265625 21.140625 C 216.976562 22.890625 214.6875 24.480469 212.792969 26.785156 C 211.136719 28.929688 209.164062 30.679688 206.875 31.953125 C 205.457031 32.585938 203.957031 32.984375 202.378906 32.984375 C 201.117188 32.984375 199.855469 33.382812 198.589844 33.382812 C 197.011719 33.542969 195.4375 33.542969 193.9375 33.304688 C 192.515625 32.90625 191.175781 32.347656 189.992188 31.476562 C 187.308594 29.726562 185.257812 27.183594 183.363281 24.640625 C 182.101562 22.96875 180.601562 21.621094 178.785156 20.585938 C 177.367188 19.792969 175.945312 18.996094 174.445312 18.359375 C 173.5 18.042969 172.554688 17.804688 171.605469 17.644531 C 169.476562 17.089844 167.347656 16.851562 165.214844 16.769531 C 161.980469 16.769531 159.21875 18.121094 156.457031 19.632812 C 154.800781 20.585938 153.144531 21.539062 151.484375 22.414062 C 149.039062 23.6875 146.832031 25.273438 144.859375 27.261719 C 143.203125 28.929688 141.542969 30.441406 139.730469 31.871094 C 138.703125 32.746094 137.519531 33.304688 136.414062 34.097656 C 135.546875 34.734375 134.757812 35.527344 133.890625 36.242188 C 132.234375 37.675781 130.183594 38.628906 127.972656 38.867188 C 122.765625 39.503906 118.503906 37.515625 114.71875 34.335938 C 113.21875 33.066406 111.875 31.714844 110.378906 30.441406 C 109.507812 29.886719 108.640625 29.328125 107.695312 28.851562 C 107.222656 28.535156 106.433594 28.773438 106.195312 27.898438 C 106.195312 27.820312 105.644531 27.898438 105.40625 27.898438 C 103.828125 27.660156 102.25 27.34375 100.59375 27.101562 C 99.804688 27.023438 99.09375 27.023438 98.304688 27.101562 C 96.015625 27.261719 93.730469 27.421875 91.441406 27.660156 C 88.914062 28.058594 86.628906 29.410156 85.128906 31.476562 C 83.707031 33.222656 82.601562 35.289062 81.261719 37.039062 C 79.527344 39.34375 77.632812 41.570312 75.582031 43.636719 C 73.371094 45.859375 70.453125 46.496094 67.375 46.339844 C 65.246094 46.179688 63.191406 45.464844 61.378906 44.273438 C 59.484375 43 58.300781 41.25 57.117188 39.503906 C 56.40625 38.308594 55.617188 37.277344 54.671875 36.242188 C 53.882812 35.527344 53.015625 34.894531 52.066406 34.414062 C 49.78125 33.304688 47.175781 32.984375 44.652344 33.460938 C 43.625 33.621094 42.597656 33.78125 41.574219 34.097656 C 38.96875 34.972656 37.707031 37.039062 36.761719 39.421875 C 36.207031 41.011719 35.417969 42.601562 34.550781 44.03125 C 33.128906 46.257812 31.472656 47.292969 28.710938 46.734375 C 27.292969 46.339844 26.109375 45.464844 25.242188 44.273438 C 22.953125 41.648438 20.820312 38.867188 18.453125 36.324219 C 15.929688 33.460938 12.695312 32.746094 8.984375 33.621094 C 6.144531 34.335938 4.171875 36.003906 2.359375 38.230469 C 2.28125 38.390625 2.199219 38.550781 2.042969 38.628906 C 1.804688 39.183594 1.492188 39.265625 1.175781 39.265625 C 1.097656 39.265625 0.9375 38.707031 0.9375 38.46875 C 1.332031 36.085938 2.359375 33.9375 3.855469 32.109375 C 6.304688 29.011719 9.539062 27.820312 13.324219 27.660156 Z M 13.324219 27.660156 " fill-opacity="1" fill-rule="nonzero"/><path fill="#6b433b" d="M 13.839844 39.441406 C 16.601562 39.441406 19.207031 40.625 21.183594 42.597656 C 23.078125 44.496094 24.8125 46.546875 26.710938 48.519531 C 27.578125 49.546875 28.523438 50.496094 29.472656 51.363281 C 30.5 52.46875 32.15625 52.707031 33.421875 51.996094 C 34.449219 51.441406 35.238281 50.496094 35.710938 49.390625 C 36.421875 47.496094 37.289062 45.679688 38.316406 43.863281 C 39.660156 41.574219 41.789062 40.46875 44.316406 39.914062 C 46.371094 39.441406 48.421875 39.363281 50.554688 39.597656 C 54.1875 39.992188 57.347656 42.046875 59.242188 45.125 C 60.1875 46.863281 61.453125 48.441406 62.953125 49.707031 C 66.03125 52.390625 70.296875 53.023438 74.007812 51.523438 C 74.71875 51.207031 75.347656 50.8125 75.902344 50.257812 C 78.664062 47.730469 81.113281 44.890625 83.007812 41.730469 C 84.035156 39.992188 85.375 38.414062 86.796875 36.992188 C 89.246094 34.703125 92.484375 33.359375 95.800781 33.441406 C 98.011719 33.441406 100.300781 33.125 102.511719 33.203125 C 104.957031 33.28125 107.40625 33.835938 109.617188 34.859375 C 112.300781 35.964844 114.277344 37.941406 116.328125 39.914062 C 118.144531 41.574219 120.277344 42.914062 122.566406 43.785156 C 124.9375 44.808594 127.621094 45.046875 130.148438 44.414062 C 132.042969 43.863281 133.859375 42.835938 135.28125 41.492188 C 136.542969 40.46875 137.886719 39.519531 139.148438 38.492188 C 140.570312 37.386719 141.992188 36.203125 143.332031 35.019531 C 146.175781 32.253906 149.175781 29.570312 152.808594 27.753906 C 155.175781 26.570312 157.46875 25.226562 159.757812 24.042969 C 162.996094 22.226562 166.785156 21.675781 170.417969 22.464844 C 172.074219 22.859375 173.8125 23.097656 175.46875 23.492188 C 178.3125 24.203125 180.917969 25.542969 183.128906 27.4375 C 185.417969 29.253906 187.078125 31.625 189.050781 33.675781 C 190.550781 35.414062 192.445312 36.835938 194.578125 37.863281 C 195.84375 38.335938 197.183594 38.492188 198.449219 38.414062 C 200.738281 38.335938 203.027344 38.097656 205.316406 37.863281 C 206.976562 37.703125 208.476562 36.992188 209.660156 35.886719 C 211.554688 34.070312 213.371094 32.097656 215.265625 30.359375 C 217.714844 27.914062 220.636719 25.9375 223.871094 24.515625 C 225.6875 23.726562 227.582031 23.175781 229.558594 22.78125 C 232.003906 22.386719 234.136719 23.410156 236.347656 24.203125 C 239.191406 25.226562 240.691406 27.597656 242.507812 29.808594 C 243.691406 31.230469 244.957031 32.570312 246.296875 33.835938 C 247.875 35.097656 249.929688 35.492188 251.824219 35.019531 C 253.640625 34.703125 255.300781 34.070312 256.878906 33.125 C 258.613281 32.019531 260.195312 30.597656 261.535156 29.019531 C 262.722656 27.4375 264.0625 25.859375 265.484375 24.4375 C 266.511719 23.570312 267.695312 22.859375 269.039062 22.386719 C 270.617188 21.832031 272.273438 21.4375 273.855469 21.121094 C 275.828125 20.726562 277.800781 20.886719 279.699219 21.359375 C 281.199219 21.753906 282.699219 22.304688 284.199219 22.859375 C 284.828125 23.175781 285.382812 23.492188 285.855469 23.964844 C 286.882812 24.753906 287.832031 25.621094 288.9375 26.414062 C 289.804688 27.042969 290.832031 27.675781 291.699219 28.308594 C 292.882812 29.097656 294.382812 29.414062 295.804688 29.097656 C 297.699219 28.78125 299.59375 28.308594 301.410156 27.675781 C 303.304688 26.886719 304.964844 25.542969 306.308594 23.964844 C 308.125 21.992188 309.859375 19.859375 311.675781 17.886719 C 312.859375 16.542969 314.359375 15.515625 316.097656 14.882812 C 317.992188 14.171875 319.96875 13.542969 321.941406 13.066406 C 324.390625 12.671875 326.835938 12.4375 329.363281 12.359375 C 330.390625 12.277344 331.496094 12.277344 332.523438 12.4375 C 333.941406 12.753906 335.363281 13.148438 336.707031 13.699219 C 339.550781 14.648438 341.207031 16.78125 342.707031 19.148438 C 343.890625 21.042969 344.917969 23.175781 346.972656 24.359375 C 348.472656 25.226562 350.207031 25.859375 351.867188 25.542969 C 353.367188 25.148438 354.867188 24.515625 356.132812 23.570312 C 357.710938 22.464844 358.972656 20.964844 360.472656 19.78125 C 362.683594 18.042969 364.578125 15.832031 367.105469 14.488281 C 368.6875 13.621094 370.265625 12.671875 372.160156 12.671875 C 372.398438 12.671875 372.632812 12.515625 372.871094 12.359375 C 373.421875 11.960938 374.054688 12.199219 373.976562 12.753906 C 373.738281 14.332031 373.421875 15.832031 372.949219 17.332031 C 372.792969 17.886719 371.921875 18.359375 371.371094 18.59375 C 369.316406 19.542969 367.105469 20.332031 365.371094 21.675781 C 364.738281 22.148438 364.265625 22.78125 363.710938 23.253906 C 362.210938 24.597656 360.710938 25.9375 359.210938 27.28125 C 357.945312 28.464844 356.605469 29.570312 355.183594 30.597656 C 351.945312 32.648438 348.550781 32.886719 345.078125 30.835938 C 343.261719 29.648438 341.917969 28.070312 341.050781 26.097656 C 339.863281 23.808594 338.445312 21.515625 336.074219 20.332031 C 334.101562 19.304688 331.96875 18.4375 329.679688 18.675781 C 327.230469 18.910156 324.703125 19.070312 322.257812 19.464844 C 320.679688 19.699219 319.175781 20.410156 317.597656 20.804688 C 315.941406 21.199219 314.359375 21.992188 313.019531 23.097656 C 312.070312 24.042969 311.125 24.992188 310.335938 26.019531 C 308.675781 27.914062 307.097656 29.964844 305.28125 31.78125 C 302.832031 34.152344 299.675781 35.652344 296.277344 35.886719 C 295.726562 35.964844 295.253906 36.046875 294.699219 36.125 C 292.171875 36.441406 290.042969 35.414062 288.226562 33.753906 C 287.910156 33.519531 287.4375 33.359375 287.121094 33.046875 C 286.09375 32.175781 285.066406 31.308594 284.039062 30.359375 C 282.855469 29.175781 281.277344 28.703125 279.777344 28.148438 C 279.066406 27.992188 278.355469 27.832031 277.644531 27.753906 C 276.066406 27.359375 274.40625 27.359375 272.828125 27.753906 C 271.011719 28.070312 269.195312 28.625 267.457031 29.253906 C 266.433594 29.730469 265.5625 30.519531 264.773438 31.386719 C 263.195312 33.125 261.851562 35.019531 260.273438 36.675781 C 258.535156 38.574219 256.40625 39.992188 253.957031 40.785156 C 252.457031 41.335938 250.796875 41.730469 249.140625 41.730469 C 247.324219 41.730469 245.507812 41.097656 244.085938 39.914062 C 243.058594 38.96875 242.035156 38.019531 241.164062 36.914062 C 240.21875 35.808594 239.269531 34.625 238.402344 33.441406 C 237.375 32.175781 236.03125 31.148438 234.453125 30.597656 C 232.480469 29.808594 230.585938 29.175781 228.453125 29.492188 C 227.980469 29.570312 227.503906 29.648438 226.953125 29.808594 C 224.425781 30.359375 222.054688 31.464844 219.925781 32.964844 C 217.636719 34.703125 215.34375 36.28125 213.449219 38.574219 C 211.792969 40.703125 209.816406 42.441406 207.527344 43.703125 C 206.105469 44.335938 204.605469 44.730469 203.027344 44.730469 C 201.765625 44.730469 200.5 45.125 199.238281 45.125 C 197.65625 45.285156 196.078125 45.285156 194.578125 45.046875 C 193.15625 44.652344 191.816406 44.097656 190.628906 43.230469 C 187.945312 41.492188 185.894531 38.96875 183.996094 36.441406 C 182.734375 34.78125 181.234375 33.441406 179.417969 32.414062 C 177.996094 31.625 176.574219 30.835938 175.074219 30.203125 C 174.128906 29.886719 173.179688 29.648438 172.234375 29.492188 C 170.101562 28.9375 167.96875 28.703125 165.835938 28.625 C 162.601562 28.625 159.835938 29.964844 157.074219 31.464844 C 155.414062 32.414062 153.757812 33.359375 152.097656 34.230469 C 149.648438 35.492188 147.4375 37.070312 145.464844 39.046875 C 143.808594 40.703125 142.148438 42.203125 140.332031 43.625 C 139.304688 44.496094 138.121094 45.046875 137.015625 45.835938 C 136.148438 46.46875 135.359375 47.257812 134.488281 47.96875 C 132.832031 49.390625 130.777344 50.335938 128.566406 50.574219 C 123.355469 51.207031 119.09375 49.230469 115.300781 46.074219 C 113.800781 44.808594 112.460938 43.46875 110.960938 42.203125 C 110.089844 41.652344 109.222656 41.097656 108.273438 40.625 C 107.800781 40.308594 107.011719 40.546875 106.773438 39.679688 C 106.773438 39.597656 106.222656 39.679688 105.984375 39.679688 C 104.40625 39.441406 102.828125 39.125 101.167969 38.886719 C 100.378906 38.808594 99.667969 38.808594 98.878906 38.886719 C 96.589844 39.046875 94.300781 39.203125 92.007812 39.441406 C 89.484375 39.835938 87.191406 41.179688 85.691406 43.230469 C 84.269531 44.96875 83.164062 47.019531 81.824219 48.757812 C 80.085938 51.046875 78.191406 53.257812 76.136719 55.3125 C 73.925781 57.523438 71.007812 58.15625 67.925781 57.996094 C 65.792969 57.839844 63.742188 57.128906 61.925781 55.945312 C 60.03125 54.679688 58.847656 52.941406 57.660156 51.207031 C 56.949219 50.023438 56.160156 48.996094 55.214844 47.96875 C 54.425781 47.257812 53.554688 46.625 52.609375 46.152344 C 50.316406 45.046875 47.710938 44.730469 45.1875 45.203125 C 44.160156 45.363281 43.132812 45.519531 42.105469 45.835938 C 39.5 46.707031 38.238281 48.757812 37.289062 51.128906 C 36.738281 52.707031 35.949219 54.285156 35.078125 55.707031 C 33.65625 57.917969 32 58.945312 29.234375 58.390625 C 27.816406 57.996094 26.628906 57.128906 25.761719 55.945312 C 23.472656 53.339844 21.339844 50.574219 18.972656 48.046875 C 16.445312 45.203125 13.207031 44.496094 9.496094 45.363281 C 6.652344 46.074219 4.679688 47.730469 2.863281 49.941406 C 2.785156 50.101562 2.707031 50.257812 2.546875 50.335938 C 2.308594 50.890625 1.996094 50.96875 1.679688 50.96875 C 1.601562 50.96875 1.441406 50.417969 1.441406 50.179688 C 1.835938 47.8125 2.863281 45.679688 4.363281 43.863281 C 6.8125 40.785156 10.046875 39.597656 13.839844 39.441406 Z M 13.839844 39.441406 " fill-opacity="1" fill-rule="nonzero"/></svg>